Patient4_TMGait_0pt7_02_right_21_EMG.mot
version=1
nRows=36
nColumns=33
inDegrees=no
endheader
time	1LAddLong	2LGlutMax	3LGlutMed	4LIliopsoas	5LSemiMemb	6LBicFemLong	7LRecFem	8LVastMed	9LVastLat	10LGasMed	11LTibAnt	12lTibPost	13LPeroneusLong	14LSol	15LExtDigLong	16LFlexDigLong	17RAddLong	18RGlutMax	19RGlutMed	20RIliopsoas	21RSemiMemb	22RBicFemLong	23RRecFem	24RVastMed	25RVastLat	26RGasMed	27RTibAnt	28RTibPost	29RPeroneusLong	30RSol	31RExtDigLong	32RFlexDigLong
23.25	0.01358	0.19424	0.054169	-0.004425	0.007629	0.074921	-0.067596	0.009613	0.17654	0.039825	-0.016327	0.006104	0.059509	-0.077362	-0.01709	-0.002747	0.002747	0.11276	-0.13931	-0.1239	0.089264	0.14526	0.18539	-0.17456	-0.063934	0.003967	0.14374	-0.00824	-0.05661	0.060425	0.000305	-0.015259
23.251	-0.00412	0.18753	0.047455	-0.00412	0.007629	0.066223	-0.003204	0.015869	0.088806	0.074005	-0.089722	0.001526	-0.081024	-0.095825	0.004883	-0.009003	0.026703	0.091705	0.037994	-0.10727	0.09613	0.14603	0.19959	-0.20325	-0.045471	0.013428	0.25162	-0.007324	0.002289	0.032959	0.000153	-0.012817
23.252	0.001221	0.20111	0.009613	0.010834	0.033569	0.054779	0.001373	-0.010986	0.091858	0.1059	-0.079803	0.009766	-0.040741	-0.056763	-0.021973	-0.009308	0.11902	0.097961	0.21316	-0.088348	0.092316	0.1471	0.27741	-0.16327	-0.055389	0.010681	0.087433	-0.004425	0.077972	0.13031	-0.003967	-0.018768
23.253	-0.004425	0.15396	0.014801	-0.001526	0.033264	0.034332	-0.009308	-0.007324	0.080109	0.066681	-0.055542	0.007172	-0.042114	-0.013733	0.14969	-0.011139	0.22797	0.020447	0.31799	-0.052948	0.074463	0.13519	0.30594	-0.12314	-0.035858	0.001373	-0.40909	-0.002747	0.093384	0.14236	0.000305	-0.011444
23.254	-0.005951	0.16068	-0.08316	-0.001221	-0.004272	-0.028839	-0.001984	-0.004578	0.071259	0.032349	-0.007324	0.009766	0.054321	0.076599	0.11734	-0.001068	0.3537	0.040283	0.33325	-0.087128	0.074005	0.12131	0.3212	-0.10757	-0.039215	0.003052	-0.45609	-0.005188	0.045471	0.081787	-0.002136	-0.019836
23.255	-0.007477	0.19287	-0.073853	-0.007172	-0.093842	-0.092316	0.054169	-0.010681	0.059509	-0.022736	0.047607	0.003662	0.17883	0.062408	0.103	-0.00061	0.28595	0.045166	0.2063	-0.054932	0.063324	0.1329	0.30319	-0.098572	-0.024414	0.004425	-0.29877	-0.004578	-0.008392	0.070953	-0.000916	-0.019531
23.256	-0.015259	0.19974	0.080872	-0.014496	-0.14847	-0.16464	0.1088	0.000153	-0.034485	-0.011292	0.098724	0.013733	-0.09079	0.062561	0.045166	-0.003815	0.12985	0.056152	0.17288	-0.021362	0.059967	0.12238	0.27313	-0.14496	-0.039368	0.005646	-0.10544	-0.001526	-0.014038	0.062103	-0.000153	-0.012512
23.257	-0.007324	0.15472	0.061493	0.0177	-0.159	-0.19714	0.14664	0.01358	-0.067902	0.040131	0.18463	0.01358	-0.15198	0.10529	-0.22644	-0.007172	0.002594	0.062714	0.13473	0.01297	0.048523	0.13031	0.2388	-0.12787	-0.055389	-0.000916	0.04303	-0.002747	-0.009613	0.03418	-0.002289	-0.013733
23.258	0.019836	0.17044	0.075684	-0.005646	-0.041199	-0.087128	0.10452	0.009766	-0.084229	0.046539	0.12726	0.016632	0.037842	0.092773	-0.098572	-0.010834	-0.10803	0.092773	0.15091	0.021667	0.056915	0.15366	0.19882	-0.11398	-0.045624	-0.006104	0.1152	-0.002136	0.007782	0.016174	0.001221	-0.017395
23.259	0.026703	0.13351	0.01236	0.004425	0.09903	-0.09079	0.043182	0.002747	-0.08606	-0.023346	0.05127	0.010681	-0.10223	0.10819	-0.050354	-0.009155	-0.10071	0.074768	0.17136	0.011444	0.065918	0.14999	0.17059	-0.15762	-0.029755	-0.00473	0.052185	-0.000305	-0.025024	-0.015869	-0.002747	-0.010681
23.26	0.02655	0.11627	-0.057373	0.000305	0.063477	0.025787	0.039825	-0.011597	-0.015564	-0.05188	0.026855	0.007324	-0.005188	0.032806	-0.15015	-0.002899	-0.065613	0.13855	0.15808	0.00351	0.071716	0.14053	0.14374	-0.12726	-0.0383	0.003052	-0.056152	0.000153	-0.041656	-0.05188	-0.001373	-0.020294
23.261	0.016022	0.10849	0.01236	-0.010376	0.081329	0.10101	-0.056458	-0.012817	0.054016	-0.040436	0.009308	0.002289	0.24231	-0.13641	-0.16296	-0.008087	-0.062408	0.13779	0.31097	0.037231	0.084076	0.15518	0.070496	-0.1329	-0.062256	0.006714	-0.054016	-0.002136	-0.022125	-0.030518	-0.003662	-0.018921
23.262	0.02182	0.09552	-0.027313	-0.015564	0.085297	0.10696	-0.27222	-0.003967	0.29648	-0.019684	0.019684	0.008392	-0.050201	-0.0737	0.028229	-0.003967	-0.08316	0.1059	0.23132	0.052795	0.10315	0.15625	-0.03067	-0.095215	-0.051575	0.012207	0.072174	-0.005035	-0.090637	-0.006561	-0.003357	-0.018005
23.263	0.031433	0.096741	0.055084	0.00061	0.088654	0.03006	-0.23209	-0.019073	0.40298	0.015106	0.020599	0.012512	-0.13702	0.053558	0.06424	-0.01236	-0.040588	0.11917	0.1564	0.065918	0.11444	0.14893	-0.02655	-0.10773	-0.057983	0.015106	0.080109	0.001831	-0.057068	-0.040283	-0.002441	-0.027466
23.264	0.007629	0.079498	-0.045929	0.007935	0.070038	-0.013885	-0.015106	-0.024567	0.21515	0.050049	0.005188	0.029297	0.098877	0.073242	0.045624	0.000458	-0.048218	0.14481	0.16998	0.018158	0.10071	0.1442	-0.04303	-0.054474	-0.03479	0.007324	0.13611	-0.001526	-0.10422	-0.028229	-0.016022	-0.02182
23.265	-0.019836	0.041962	-0.045471	0.00061	0.047607	0.041809	0.14542	-0.026093	-0.1474	0.10864	0.002594	0.041504	0.13062	-0.11978	-0.034332	-0.002441	-0.072479	0.09613	0.1564	0.008087	0.098877	0.14938	-0.014496	-0.052948	-0.044556	0.003815	0.26962	-0.000763	-0.088196	-0.024719	-0.00412	-0.025787
23.266	-0.009918	0.042267	0.068054	-0.012512	0.027924	0.051727	0.14114	-0.007629	-0.13733	0.15564	0.019989	0.006409	0.057526	-0.2446	-0.039978	-0.010071	-0.1033	0.1059	0.24384	-0.021057	0.10651	0.15579	-0.010223	-0.040131	-0.015259	-0.007019	0.1564	-0.000153	0.002289	-0.015717	-0.002136	-0.023804
23.267	0.003357	0.055542	0.0383	-0.008545	0.023804	0.074768	-0.007324	0.003967	-0.078888	0.13397	0.016785	-0.045929	0.12985	0.055542	0.018005	0.006409	-0.11658	0.12268	0.43015	-0.026398	0.10849	0.15305	-0.007324	-0.046844	-0.027466	-0.004272	0.11063	-0.004578	-0.024414	-0.005798	-0.003815	-0.027313
23.268	0.007629	0.052643	0.019073	0.005646	0.016937	0.075226	-0.080719	0.002594	-0.018158	0.079498	0.028076	-0.00351	-0.033722	0.031128	-0.030518	0.000305	-0.10574	0.078278	0.43533	0.002899	0.10696	0.15335	0.049591	-0.030365	-0.033722	-0.001678	-0.027161	-0.000305	0.025177	-0.010834	-0.003357	-0.024719
23.269	0.012665	0.036316	-0.005798	-0.015259	0.013733	0.059509	-0.027771	0.01297	0.008698	0.067444	0.022278	0.00946	-0.20538	-0.15991	-0.029144	-0.00824	-0.10452	0.014191	0.30792	0.003967	0.12161	0.16556	0.010376	-0.053864	-0.030518	0.001831	0.047455	-0.004425	0.025787	0.003662	-0.003357	-0.018311
23.27	0.005188	0.044556	-0.02594	-0.010071	-0.005646	0.070038	-0.00412	0.011902	0.025482	0.023041	0.014954	0.012665	-0.15243	-0.13229	0.048218	-0.014801	-0.096283	0.024719	0.14175	0.02594	0.12512	0.17609	0.040436	-0.065308	-0.023651	-0.000153	0.12711	-0.004272	-0.11688	0.019836	-0.000916	-0.023193
23.271	0.00351	0.066528	-0.023499	0.011444	-0.013428	0.02533	0.048676	0.001678	0.020752	-0.040131	-0.014496	0.002136	-0.16968	-0.06546	0.047607	0.009918	-0.064697	0.080872	-0.030518	0.0354	0.13336	0.14938	0.009613	-0.078735	-0.033722	-0.004425	0.17868	-0.014038	-0.21194	-0.011139	-0.004272	-0.014343
23.272	0.029144	0.049133	-0.015259	-0.00351	-0.001678	-0.075684	0.034332	-0.001221	-0.014648	-0.050507	-0.019531	0.013123	0.054016	-0.031433	0.040894	-0.00351	-0.059814	0.01297	0.35172	0.022278	0.15549	0.14877	-0.006866	-0.068817	-0.027771	-0.011749	0.2121	-0.005188	-0.24292	-0.002747	-0.000916	-0.011597
23.273	0.006256	0.049133	-0.054779	0.015869	0.039215	-0.075684	0.000763	-0.003052	-0.027771	-0.02182	0.023804	0.003815	0.04837	0.032654	-0.005951	0.001526	-0.043945	-0.047455	0.38711	0.077515	0.15106	0.14786	-0.010071	-0.046844	-0.025177	0.002136	0.233	-0.006714	-0.062714	-0.037689	-0.00061	-0.009766
23.274	-0.007172	0.028229	-0.053558	-0.000305	0.033875	-0.039978	-0.009155	-0.00412	-0.028229	0.015717	0.024109	0.010071	0.094757	0.087128	-0.058746	-0.009613	-0.039978	-0.082092	0.36331	0.088959	0.11383	0.17578	0.033569	-0.070496	-0.015259	-0.001526	0.039978	-0.005646	0.21652	-0.063019	-0.00061	-0.010834
23.275	-0.001984	0.064697	0.015259	0.010071	0.018616	-0.011139	-0.02182	0.008392	-0.032349	0.002136	0.034485	0.002136	-0.046844	0.18249	-0.039978	0.00473	-0.033417	-0.097351	0.4715	0.041504	0.046539	0.17105	0.039673	-0.086517	-0.019989	0.005951	-0.11383	-0.013123	0.40832	-0.079956	-0.003052	-0.002441
23.276	-0.009308	0.032806	0.15747	0.018616	0.005188	0.006256	-0.029755	0.00412	-0.027924	-0.010529	0.032349	0.006256	0.18494	0.18051	-0.021973	-0.00473	-0.00885	-0.074158	0.79514	-0.005798	0.046844	0.16403	0.027466	-0.10971	-0.021667	-0.000458	-0.052643	-0.008392	0.60242	-0.11444	0.000153	-0.001373
23.277	0.00061	0.004883	0.058441	0.004578	-0.014038	0.013733	-0.014191	0.007782	-0.023499	-0.00885	0.010834	0.012817	0.10696	0.072937	0.017242	-0.005188	0.002747	-0.049438	0.72083	0.00885	0.023804	0.11795	0.009766	-0.093994	-0.024261	-0.001373	0.27145	-0.005035	0.091095	-0.13275	-0.001373	-0.010986
23.278	-0.00824	-0.018616	-0.038757	-0.026398	-0.012665	0.023651	-0.024719	0.00885	0.002594	-0.025024	-0.00061	0.005646	-0.052795	-0.024719	0.026398	0.007782	0.012512	-0.027924	0.099487	0.018768	-0.011902	0.080414	0.027618	-0.081329	-0.001221	-0.003357	0.41367	-0.00824	-0.54779	-0.10819	0.001221	-0.00946
23.279	0.01297	-0.062256	0.036621	-0.03418	-0.007782	-0.012817	0.016937	0.002747	0.041962	-0.058594	-0.018768	0.016937	0.60379	-0.010376	0.018005	0.001984	0.006866	-0.028076	-0.065613	0.016937	-0.044403	0.098572	0.028839	-0.072479	0.004883	-0.00351	0.41489	-0.008087	-0.32425	-0.014191	-0.008087	-0.00412
23.28	0.00824	-0.054016	0.056305	-0.032043	0.02533	-0.019531	0.036163	0.001526	0.024414	-0.048523	-0.024719	0.005646	0.006256	0.12024	0.030365	-0.00061	0.019379	0.003967	0.47272	-0.000458	-0.005798	0.10925	0.019684	-0.065002	-0.003967	-0.008545	0.35584	-0.011139	0.1268	-0.04715	-0.001984	-0.006256
23.281	-0.00061	-0.07843	-0.11963	0.014191	0.026703	-0.015869	0.001831	-0.001068	-0.002441	-0.000763	0.014496	0.002441	-0.71091	0.068054	0.016174	-0.015411	0.015106	-0.019073	0.7869	-0.007782	0.096436	0.12085	0.09079	-0.060577	-0.019379	-0.00885	0.088196	-0.004425	0.2243	-0.042114	-0.002289	-0.006714
23.282	0.01236	-0.10513	-0.094757	0.033875	0.011292	-0.021667	-0.007324	0.009308	-0.018921	0.03479	-0.014191	0.015564	-0.41504	0.000458	0.045471	-0.006409	0.005646	-0.046234	0.77881	0.002899	0.28854	0.13412	0.05661	-0.06134	-0.012665	-0.014648	0.44876	-0.009308	0.051117	-0.058899	-0.002289	-0.005341
23.283	0.007782	-0.12665	0.014191	-0.011292	0.017548	-0.041809	-0.022583	0.001221	-0.00412	0.001068	-0.043182	0.012665	0.61783	0.021362	-0.017853	0.003815	-0.015717	-0.08194	0.67246	0.03067	0.25772	0.12558	0.074158	-0.052643	-0.009613	-0.001678	0.18158	-0.005646	0.038757	-0.1149	-0.00351	-0.002136
23.284	0.010071	-0.14572	0.072784	-0.009155	0.033112	-0.01358	-0.012665	0.007172	0.072632	-0.012054	-0.041046	-0.002441	-0.11734	0.02533	0.013275	0.006256	-0.01236	-0.10941	0.39414	0.018311	0.041809	0.17792	0.063629	-0.054474	-0.021973	0.001984	0.3096	-0.006561	-0.064697	-0.14099	-0.004272	-0.003662
23.285	0.016174	-0.16602	-0.046844	-0.015717	0.034485	-0.001831	-0.00351	0.007019	0.06897	-0.028534	-0.013123	0.001678	-0.13382	0.057373	-0.072174	0.007629	0.003815	-0.082397	0.18112	0.003204	-0.035553	0.17075	0.035706	-0.092316	-0.014648	-0.005341	-0.1976	-0.006104	-0.1152	-0.081024	-0.005188	-0.003967
